<svg xmlns="http://www.w3.org/2000/svg" width="64" height="64" viewBox="0 0 64 64" role="img" aria-label="Lumisong">
  <rect width="64" height="64" rx="15" fill="#05070d"/>
  <path d="M8 51H56M12 47H52M16 43H48M20 40H44" stroke="#38bdf8" stroke-opacity="0.2" stroke-width="0.6"/>
  <path d="M15 32C20 29 22 25 27 26C32 27 32 20 37 19C42 18 43 24 49 22" fill="none" stroke="#67e8f9" stroke-width="2.5" stroke-linecap="round" stroke-linejoin="round"/>
  <g fill="#67e8f9">
    <circle cx="15" cy="32" r="3"/>
    <circle cx="27" cy="26" r="4"/>
    <circle cx="37" cy="19" r="3"/>
    <circle cx="43" cy="24" r="2.6"/>
    <circle cx="49" cy="22" r="3.5"/>
  </g>
  <circle cx="27" cy="26" r="1.5" fill="#f97316"/>
  <g fill="#7dd3fc" opacity="0.45">
    <circle cx="20" cy="24" r="0.9"/>
    <circle cx="31" cy="34" r="0.8"/>
    <circle cx="40" cy="32" r="1"/>
    <circle cx="47" cy="36" r="0.8"/>
  </g>
</svg>
